<svg xmlns="http://www.w3.org/2000/svg" width="429" height="91.35912029508586" viewBox="0 0 369.54430379746833 78.6975349766822" class="looka-1j8o68f"><defs id="SvgjsDefs1982"><linearGradient id="SvgjsLinearGradient1989"><stop id="SvgjsStop1990" stop-color="#006838" offset="0"></stop><stop id="SvgjsStop1991" stop-color="#96cf24" offset="1"></stop></linearGradient></defs><g id="SvgjsG1983" featurekey="symbolFeature-0" transform="matrix(0.874417055296469,0,0,0.874417055296469,-11.367421718854096,-5.246502331778814)" fill="#04a118"><path xmlns="http://www.w3.org/2000/svg" d="M50.896,20.47c-10.83,0-21.466,7.88-21.466,21.06c0,7.48,2.74,11.52,5.36,15.43c1.75,2.62,3.48,5.1,4.35,8.58  C39.86,68.47,40,79.28,40,79.28c0,3.64,2.64,4.72,3.95,4.72c0,0,13.16,0.01,13.19,0.01c1.9,0,4.86-1.27,4.86-4.73  c0,0-0.14-10.81,0.58-13.74c0.87-3.48,2.39-5.96,4.14-8.58c2.62-3.91,5.33-7.95,5.33-15.43C72.05,28.52,62.333,20.47,50.896,20.47z   M59.98,48.49c-0.69,1.33-2.1,2.52-3.97,2.88c-0.77,4.96-2.93,18.78-2.94,18.86c0.65,0.43,0.93,1.01,0.93,1.85V82h-2V72h-2  c0,0.002,0,0.002,0,0.002V82h-2v-9.92c0-0.82,0.23-1.4,0.83-1.81c-0.02-0.09-2.28-14-3.18-19.07c-2.01-0.46-3.41-1.75-3.99-3.14  c-0.59-1.4-0.28-2.76,0.78-3.47c0.73-0.48,1.52-0.58,2.24-0.28c1.21,0.5,2.08,2.05,2.58,4.6c0.03,0.14,0.06,0.29,0.09,0.45  c0.38,0,0.78-0.05,1.22-0.14c0.36-0.07,0.71-0.28,1.04-0.58c-0.93-1.44-1.38-3.2-1.17-4.62c0.22-1.47,1.19-2.38,2.53-2.38  c1.37,0,2.32,0.94,2.48,2.45c0.13,1.28-0.33,3.06-1.24,4.53c0.33,0.28,0.71,0.5,1.12,0.63c0.33,0.1,0.65,0.16,0.95,0.2  c0.01-0.03,0.01-0.07,0.02-0.1c0.49-3.22,1.74-4.36,2.7-4.74c0.88-0.35,1.83-0.2,2.61,0.41C60.55,45.75,60.69,47.11,59.98,48.49z"></path><path xmlns="http://www.w3.org/2000/svg" d="M53.98,51.62C53.19,56.69,51.6,67,51.14,70h-0.4c-0.48-3-2.1-13.19-3.03-18.46c0.4-0.02,0.83-0.175,1.27-0.265  c0.72-0.15,1.38-0.568,1.95-1.078c0.54,0.46,1.14,0.881,1.81,1.081C53.17,51.409,53.58,51.57,53.98,51.62z"></path><path xmlns="http://www.w3.org/2000/svg" d="M50.9,46.82c-0.41-0.88-0.58-1.82-0.48-2.5c0.1-0.68,0.38-0.68,0.55-0.68c0.19,0,0.42,0,0.49,0.66  C51.54,45.03,51.31,45.96,50.9,46.82z"></path><path xmlns="http://www.w3.org/2000/svg" d="M57,87H45c-0.553,0-1-0.447-1-1s0.447-1,1-1h12c0.553,0,1,0.447,1,1S57.553,87,57,87z"></path><path xmlns="http://www.w3.org/2000/svg" d="M57,90H45c-0.553,0-1-0.447-1-1s0.447-1,1-1h12c0.553,0,1,0.447,1,1S57.553,90,57,90z"></path><path xmlns="http://www.w3.org/2000/svg" d="M56.394,91.734C56.203,91.276,55.76,91,55.263,91h-8.645c-0.497,0-0.94,0.276-1.131,0.734  c-0.189,0.459-0.086,0.972,0.257,1.314l2.574,2.559C48.611,95.907,49.021,96,49.44,96h3c0.42,0,0.829-0.098,1.121-0.398l2.566-2.583  C56.479,92.668,56.583,92.193,56.394,91.734z"></path><path xmlns="http://www.w3.org/2000/svg" d="M45.22,48.94c-0.9-0.42-1.48-1.08-1.72-1.65c-0.15-0.36-0.22-0.85,0.05-1.03c0.14-0.1,0.23-0.12,0.29-0.12  c0.03,0,0.05,0.01,0.07,0.02C44.2,46.28,44.79,47,45.22,48.94z"></path><path xmlns="http://www.w3.org/2000/svg" d="M58.2,47.57c-0.27,0.52-0.89,1.22-1.84,1.62c0.33-1.72,0.92-2.54,1.38-2.72c0.07-0.03,0.14-0.04,0.21-0.04  c0.14,0,0.29,0.05,0.43,0.17C58.44,46.65,58.49,47.02,58.2,47.57z"></path><path xmlns="http://www.w3.org/2000/svg" d="M51,15c-0.553,0-1-0.448-1-1V7c0-0.552,0.447-1,1-1s1,0.448,1,1v7C52,14.552,51.553,15,51,15z"></path><path xmlns="http://www.w3.org/2000/svg" d="M35.896,19.112c-0.346,0-0.682-0.179-0.867-0.5l-3.523-6.103c-0.276-0.479-0.112-1.09,0.366-1.366  c0.476-0.276,1.089-0.112,1.366,0.366l3.523,6.103c0.276,0.479,0.112,1.09-0.366,1.366C36.237,19.069,36.065,19.112,35.896,19.112z"></path><path xmlns="http://www.w3.org/2000/svg" d="M24.815,30.136c-0.17,0-0.342-0.043-0.499-0.134l-6.104-3.524c-0.479-0.276-0.643-0.888-0.366-1.366  s0.888-0.642,1.366-0.366l6.104,3.524c0.479,0.276,0.643,0.888,0.366,1.366C25.497,29.957,25.161,30.136,24.815,30.136z"></path><path xmlns="http://www.w3.org/2000/svg" d="M21,45h-7c-0.553,0-1-0.448-1-1s0.447-1,1-1h7c0.553,0,1,0.448,1,1S21.553,45,21,45z"></path><path xmlns="http://www.w3.org/2000/svg" d="M18.829,63.551c-0.346,0-0.682-0.18-0.867-0.5c-0.276-0.479-0.112-1.09,0.366-1.366l6.104-3.523  c0.477-0.276,1.089-0.111,1.366,0.366c0.276,0.479,0.112,1.09-0.366,1.366l-6.104,3.523C19.171,63.508,18.999,63.551,18.829,63.551z  "></path><path xmlns="http://www.w3.org/2000/svg" d="M82.797,63.611c-0.17,0-0.342-0.043-0.499-0.134l-6.103-3.523c-0.479-0.276-0.643-0.888-0.366-1.366  c0.276-0.479,0.888-0.643,1.366-0.366l6.103,3.523c0.479,0.276,0.643,0.888,0.366,1.366C83.479,63.433,83.143,63.611,82.797,63.611z  "></path><path xmlns="http://www.w3.org/2000/svg" d="M88,45h-7c-0.553,0-1-0.448-1-1s0.447-1,1-1h7c0.553,0,1,0.448,1,1S88.553,45,88,45z"></path><path xmlns="http://www.w3.org/2000/svg" d="M76.811,30.075c-0.346,0-0.682-0.179-0.867-0.5c-0.276-0.479-0.112-1.09,0.366-1.366l6.104-3.524  c0.477-0.276,1.089-0.113,1.366,0.366c0.276,0.479,0.112,1.09-0.366,1.366l-6.104,3.524C77.152,30.032,76.98,30.075,76.811,30.075z"></path><path xmlns="http://www.w3.org/2000/svg" d="M65.73,19.172c-0.17,0-0.342-0.043-0.499-0.134c-0.479-0.276-0.643-0.888-0.366-1.366l3.524-6.103  c0.276-0.479,0.888-0.642,1.366-0.366c0.479,0.276,0.643,0.888,0.366,1.366l-3.524,6.103C66.412,18.993,66.076,19.172,65.73,19.172z  "></path></g><g id="SvgjsG1984" featurekey="nameFeature-0" transform="matrix(1.1827605635762803,0,0,1.1827605635762803,84.01296302021034,-2.467740454635532)" fill="url(#SvgjsLinearGradient1989)"><path d="M31.582 41.1719 l-4.8828 1.8555 l-3.6133 -4.0625 c-1.9922 0.91797 -4.2969 1.4258 -6.7969 1.4258 c-8.3984 0 -14.609 -5.6641 -14.609 -14.512 c0 -8.8672 6.2109 -14.492 14.609 -14.492 s14.609 5.625 14.609 14.492 c0 4.1992 -1.3867 7.6758 -3.75 10.176 z M7.5195 25.878999999999998 c0 6.0156 3.8086 9.4141 8.7695 9.4141 s8.7695 -3.3984 8.7695 -9.4141 c0 -5.7031 -3.8086 -9.1016 -8.7695 -9.1016 s-8.7695 3.3984 -8.7695 9.1016 z M52.4466015625 40 l-7.3438 -12.422 l-1.6992 0 l0 12.422 l-5.8594 0 l0 -28.223 l10.234 0 c6.3867 0 9.082 3.7695 9.082 8.4375 c0 3.7891 -2.1484 6.25 -5.9766 7.0703 l8.4961 12.715 l-6.9336 0 z M43.4033015625 16.641 l0 6.7383 l3.457 0 c3.125 0 4.3945 -1.3281 4.3945 -3.3594 c0 -2.0117 -1.2695 -3.3789 -4.3945 -3.3789 l-3.457 0 z M91.1478671875 25.098 c3.1836 0.87891 5.3125 2.9688 5.3125 6.9922 c0 4.7656 -2.8906 7.9102 -8.8477 7.9102 l-11.621 0 l0 -28.223 l9.1406 0 c6.0938 0 9.2969 2.9297 9.2969 7.7344 c0 2.4805 -1.0742 4.5117 -3.2813 5.5859 z M85.1908671875 16.641 l-3.5547 0 l0 6.6406 l3.8086 0 c2.5 0 3.5938 -1.4844 3.5938 -3.3984 c0 -1.875 -1.2305 -3.2422 -3.8477 -3.2422 z M86.5188671875 34.9805 c3.1641 0 4.2578 -1.6992 4.2578 -3.5352 c0 -1.875 -1.0742 -3.6523 -4.375 -3.6523 l-4.7656 0 l0 7.1875 l4.8828 0 z M113.086375 40.39063 c-6.1914 0 -11.035 -3.1641 -11.035 -10.273 l0 -18.34 l5.8594 0 l0 17.539 c0 4.2969 2.2852 5.8984 5.1758 5.8984 c2.9102 0 5.2148 -1.6211 5.2148 -5.8984 l0 -17.539 l5.8594 0 l0 18.34 c0 7.1094 -4.8633 10.273 -11.074 10.273 z M131.8407765625 40 l0 -28.223 l5.8594 0 l0 28.223 l-5.8594 0 z M151.806621875 34.8242 l8.8477 0 l0 5.1758 l-14.707 0 l0 -28.223 l5.8594 0 l0 23.047 z M166.0888234375 40 l0 -28.223 l10.215 0 c9.0039 0 13.457 5.6641 13.457 14.102 c0 8.457 -4.4531 14.121 -13.457 14.121 l-10.215 0 z M171.9482234375 34.8242 l4.0625 0 c5.1953 0 7.5781 -3.2422 7.5781 -8.9453 s-2.3828 -8.9453 -7.5781 -8.9453 l-4.0625 0 l0 17.891 z M212.57859375 16.934 l-10.469 0 l0 6.4063 l9.2773 0 l0 5.0977 l-9.2773 0 l0 6.3867 l10.469 0 l0 5.1758 l-16.367 0 l0 -28.223 l16.367 0 l0 5.1563 z M234.4778515625 40 l-7.3438 -12.422 l-1.6992 0 l0 12.422 l-5.8594 0 l0 -28.223 l10.234 0 c6.3867 0 9.082 3.7695 9.082 8.4375 c0 3.7891 -2.1484 6.25 -5.9766 7.0703 l8.4961 12.715 l-6.9336 0 z M225.4345515625 16.641 l0 6.7383 l3.457 0 c3.125 0 4.3945 -1.3281 4.3945 -3.3594 c0 -2.0117 -1.2695 -3.3789 -4.3945 -3.3789 l-3.457 0 z"></path></g><g id="SvgjsG1985" featurekey="sloganFeature-0" transform="matrix(0.7620984564454663,0,0,0.7620984564454663,159.47156100181724,53.66118282620463)" fill="#59a52c"><path d="M6.5137 20.19531 c-3.0273 0 -5.3906 -1.4551 -5.8203 -4.1016 l3.0273 -0.69336 c0.19531 1.582 1.3574 2.4023 2.9102 2.4023 c1.1914 0 2.1387 -0.52734 2.1289 -1.7188 c-0.0097656 -1.3281 -1.5723 -1.748 -3.291 -2.2754 c-2.0703 -0.64453 -4.2871 -1.4063 -4.2871 -4.0039 c0 -2.627 2.1484 -4.1113 4.9805 -4.1113 c2.4805 0 4.9805 1.0059 5.5469 3.7109 l-2.832 0.70313 c-0.26367 -1.4063 -1.2109 -2.0215 -2.5391 -2.0215 c-1.1816 0 -2.1875 0.48828 -2.1875 1.6504 c0 1.084 1.3867 1.4453 2.9883 1.9238 c2.1289 0.64453 4.6484 1.4648 4.6484 4.2773 c0 2.998 -2.5098 4.2578 -5.2734 4.2578 z M14.492215625 20 l0 -14.111 l2.9297 0 l0 14.111 l-2.9297 0 z M37.236281250000005 20 l-2.9199 0 l-0.92773 -10.635 l-3.5742 10.635 l-1.8945 0 l-3.5742 -10.635 l-0.9375 10.635 l-2.9297 0 l1.1816 -14.111 l4.1797 0 l3.0078 8.8574 l3.0469 -8.8574 l4.1797 0 z M46.1718625 5.888999999999999 c2.7637 0 4.4824 2.0508 4.4824 4.5605 c0 2.5684 -1.7188 4.4922 -4.4824 4.4922 l-2.9395 0 l0 5.0586 l-2.9297 0 l0 -14.111 l5.8691 0 z M45.6835625 12.4902 c1.4648 0 2.1484 -0.81055 2.1484 -2.0801 c0 -1.2207 -0.68359 -2.0703 -2.1484 -2.0703 l-2.4512 0 l0 4.1504 l2.4512 0 z M56.0449625 17.4121 l4.4238 0 l0 2.5879 l-7.3535 0 l0 -14.111 l2.9297 0 l0 11.523 z M62.70510625 20 l0 -14.111 l2.9297 0 l0 14.111 l-2.9297 0 z M75.527371875 20.19531 c-4.1504 0 -7.2168 -2.8223 -7.2168 -7.2559 s3.0664 -7.2461 7.2168 -7.2461 c3.1445 0 5.6641 1.6113 6.6699 4.2871 l-2.7344 0.99609 c-0.625 -1.6406 -2.1191 -2.5879 -3.9355 -2.5879 c-2.4316 0 -4.2969 1.6992 -4.2969 4.5508 s1.8652 4.5605 4.2969 4.5605 c1.8164 0 3.3105 -0.95703 3.9355 -2.5977 l2.7344 0.99609 c-1.0059 2.6758 -3.5254 4.2969 -6.6699 4.2969 z M84.5996375 20 l0 -14.111 l2.9297 0 l0 14.111 l-2.9297 0 z M99.355703125 5.888999999999999 l0 2.5781 l-3.3496 0 l0 11.533 l-2.9004 0 l0 -11.533 l-3.3691 0 l0 -2.5781 l9.6191 0 z M112.15809375 5.888999999999999 l-4.6387 7.3535 l0 6.7578 l-2.9395 0 l0 -6.6895 l-4.668 -7.4219 l3.2422 0 l2.8809 4.8047 l2.8906 -4.8047 l3.2324 0 z M119.335965625 20 l0 -14.111 l2.9297 0 l0 14.111 l-2.9297 0 z M130.59573125 20.19531 c-3.0273 0 -5.3906 -1.4551 -5.8203 -4.1016 l3.0273 -0.69336 c0.19531 1.582 1.3574 2.4023 2.9102 2.4023 c1.1914 0 2.1387 -0.52734 2.1289 -1.7188 c-0.0097656 -1.3281 -1.5723 -1.748 -3.291 -2.2754 c-2.0703 -0.64453 -4.2871 -1.4063 -4.2871 -4.0039 c0 -2.627 2.1484 -4.1113 4.9805 -4.1113 c2.4805 0 4.9805 1.0059 5.5469 3.7109 l-2.832 0.70313 c-0.26367 -1.4063 -1.2109 -2.0215 -2.5391 -2.0215 c-1.1816 0 -2.1875 0.48828 -2.1875 1.6504 c0 1.084 1.3867 1.4453 2.9883 1.9238 c2.1289 0.64453 4.6484 1.4648 4.6484 4.2773 c0 2.998 -2.5098 4.2578 -5.2734 4.2578 z M152.119359375 20 l-4.3848 -5.9961 l-1.0352 0 l0 5.9961 l-2.9297 0 l0 -14.111 l2.9297 0 l0 5.5469 l0.99609 0 l4.4238 -5.5469 l3.5742 0 l-5.4688 6.748 l5.6348 7.3633 l-3.7402 0 z M166.1428125 8.467 l-5.2344 0 l0 3.2031 l4.6387 0 l0 2.5488 l-4.6387 0 l0 3.1934 l5.2344 0 l0 2.5879 l-8.1836 0 l0 -14.111 l8.1836 0 l0 2.5781 z M179.745984375 5.888999999999999 l-4.6387 7.3535 l0 6.7578 l-2.9395 0 l0 -6.6895 l-4.668 -7.4219 l3.2422 0 l2.8809 4.8047 l2.8906 -4.8047 l3.2324 0 z"></path></g></svg>